
          <svg xmlns="http://www.w3.org/2000/svg" xmlns:cc="http://creativecommons.org/ns#" xmlns:rdf="http://www.w3.org/1999/02/22-rdf-syntax-ns#" version="1.1" width="759.0625" height="191.05081176757812">
            <defs>
              <style type="text/css">svg {
          background-color: #fff; }
        
        .root text,
        .root tspan {
          font: 12px Arial; }
        
        .root path {
          fill-opacity: 0;
          stroke-width: 2px;
          stroke: #000; }
        
        .root circle {
          fill: #6b6659;
          stroke-width: 2px;
          stroke: #000; }
        
        .anchor text, .any-character text {
          fill: #fff; }
        
        .anchor rect, .any-character rect {
          fill: #6b6659; }
        
        .escape text, .charset-escape text, .literal text {
          fill: #000; }
        
        .escape rect, .charset-escape rect {
          fill: #bada55; }
        
        .literal rect {
          fill: #dae9e5; }
        
        .charset .charset-box {
          fill: #cbcbba; }
        
        .subexp .subexp-label tspan,
        .charset .charset-label tspan,
        .match-fragment .repeat-label tspan {
          font-size: 10px; }
        
        .repeat-label {
          cursor: help; }
        
        .subexp .subexp-label tspan,
        .charset .charset-label tspan {
          dominant-baseline: text-after-edge; }
        
        .subexp .subexp-box {
          stroke: #908c83;
          stroke-dasharray: 6,2;
          stroke-width: 2px;
          fill-opacity: 0; }
        
        .quote {
          fill: #908c83; }
        </style>
            </defs>
            <metadata>
              <rdf:rdf>
                <cc:license rdf:about="http://creativecommons.org/licenses/by/3.0/">
                  <cc:permits rdf:resource="http://creativecommons.org/ns#Reproduction"></cc:permits>
                  <cc:permits rdf:resource="http://creativecommons.org/ns#Distribution"></cc:permits>
                  <cc:requires rdf:resource="http://creativecommons.org/ns#Notice"></cc:requires>
                  <cc:requires rdf:resource="http://creativecommons.org/ns#Attribution"></cc:requires>
                  <cc:permits rdf:resource="http://creativecommons.org/ns#DerivativeWorks"></cc:permits>
                </cc:license>
              </rdf:rdf>
            </metadata>
          <desc>Created with Snap</desc><g class="root" transform="matrix(1,0,0,1,15,9.8955)"><g class="regexp match" transform="matrix(1,0,0,1,10,0)"><path d="M97.8671875,91.6298953125H142.8672M240.257825,91.62989999999999H275.2578M305.4453,91.6298953125H335.4453M432.835925,91.62989999999999H482.8359M565.7030875,91.6298953125H610.7031"></path><g class="match-fragment" transform="matrix(1,0,0,1,0,69.8672)"><path d="M0,21.7626953125q10,0 10,-10v-1.7626953125q0,-10 10,-10h72.8671875q10,0 10,10v1.7626953125q0,10 10,10M10,6.7626953125l5,5m-5,-5l-5,5M15,21.7626953125q-10,0 -10,10v1.7626953125q0,10 10,10h82.8671875q10,0 10,-10v-1.7626953125q0,-10 -10,-10"></path><g class="any-character" transform="matrix(1,0,0,1,15,10)"><g class="label"><rect width="82.8671875" height="23.525390625"></rect><text x="0" y="0" transform="matrix(1,0,0,1,5,16.7627)"><tspan>any character</tspan></text></g></g></g><g class="match-fragment subexp" transform="matrix(1,0,0,1,122.8672,58.7754)"><rect rx="3" ry="3" class="subexp-box" transform="matrix(1,0,0,1,0,11.1045)" width="142.390625" height="53.5"></rect><text x="0" y="0" class="subexp-label" transform="matrix(1,0,0,1,0,11.1045)"><tspan>group #1</tspan></text><g class="regexp match match-fragment" transform="matrix(1,0,0,1,10,21.1045)"><path d="M10,11.75q-10,0 -10,10v1.75q0,10 10,10h97.390625q10,0 10,-10v-1.75q0,-10 -10,-10M117.390625,26.75l5,-5m-5,5l-5,-5"></path><g class="escape" transform="matrix(1,0,0,1,10,0)"><g class="label"><rect width="97.390625" height="23.5" rx="3" ry="3"></rect><text x="0" y="0" transform="matrix(1,0,0,1,5,16.75)"><tspan>non-white space</tspan></text></g></g></g></g><g class="match-fragment literal" transform="matrix(1,0,0,1,275.2578,79.8672)"><g class="label"><rect width="30.1875" height="23.525390625" rx="3" ry="3"></rect><text x="0" y="0" transform="matrix(1,0,0,1,5,16.7627)"><tspan class="quote">“</tspan><tspan>@</tspan><tspan class="quote">”</tspan></text></g></g><g class="match-fragment subexp" transform="matrix(1,0,0,1,315.4453,58.7754)"><rect rx="3" ry="3" class="subexp-box" transform="matrix(1,0,0,1,0,11.1045)" width="142.390625" height="53.5"></rect><text x="0" y="0" class="subexp-label" transform="matrix(1,0,0,1,0,11.1045)"><tspan>group #2</tspan></text><g class="regexp match match-fragment" transform="matrix(1,0,0,1,10,21.1045)"><path d="M10,11.75q-10,0 -10,10v1.75q0,10 10,10h97.390625q10,0 10,-10v-1.75q0,-10 -10,-10M117.390625,26.75l5,-5m-5,5l-5,-5"></path><g class="escape" transform="matrix(1,0,0,1,10,0)"><g class="label"><rect width="97.390625" height="23.5" rx="3" ry="3"></rect><text x="0" y="0" transform="matrix(1,0,0,1,5,16.75)"><tspan>non-white space</tspan></text></g></g></g></g><g class="match-fragment" transform="matrix(1,0,0,1,467.8359,69.8672)"><path d="M0,21.7626953125q10,0 10,-10v-1.7626953125q0,-10 10,-10h72.8671875q10,0 10,10v1.7626953125q0,10 10,10M10,6.7626953125l5,5m-5,-5l-5,5M15,21.7626953125q-10,0 -10,10v1.7626953125q0,10 10,10h82.8671875q10,0 10,-10v-1.7626953125q0,-10 -10,-10"></path><g class="any-character" transform="matrix(1,0,0,1,15,10)"><g class="label"><rect width="82.8671875" height="23.525390625"></rect><text x="0" y="0" transform="matrix(1,0,0,1,5,16.7627)"><tspan>any character</tspan></text></g></g></g><g class="match-fragment subexp" transform="matrix(1,0,0,1,590.7031,0)"><rect rx="3" ry="3" class="subexp-box" transform="matrix(1,0,0,1,0,11.1045)" width="118.35939025878906" height="160.05079650878906"></rect><text x="0" y="0" class="subexp-label" transform="matrix(1,0,0,1,0,11.1045)"><tspan>group #3</tspan></text><g class="regexp match match-fragment" transform="matrix(1,0,0,1,10,21.1045)"><path d="M10,70.52539825439453q-10,0 -10,10v49.52539825439453q0,10 10,10h73.35939025878906q10,0 10,-10v-49.52539825439453q0,-10 -10,-10M93.35939025878906,85.52539825439453l5,-5m-5,5l-5,-5"></path><g class="charset" transform="matrix(1,0,0,1,10,0)"><rect rx="3" ry="3" class="charset-box" transform="matrix(1,0,0,1,0,11)" width="73.3593864440918" height="119.05079650878906"></rect><text x="0" y="0" class="charset-label" transform="matrix(1,0,0,1,0,11)"><tspan>One of:</tspan></text><g transform="matrix(1,0,0,1,5,16)"><g class="literal" transform="matrix(1,0,0,1,20.6797,0)"><g class="label"><rect width="22" height="23.525390625" rx="3" ry="3"></rect><text x="0" y="0" transform="matrix(1,0,0,1,5,16.7627)"><tspan class="quote">“</tspan><tspan>(</tspan><tspan class="quote">”</tspan></text></g></g><g class="literal" transform="matrix(1,0,0,1,20.6797,28.5254)"><g class="label"><rect width="22" height="23.525390625" rx="3" ry="3"></rect><text x="0" y="0" transform="matrix(1,0,0,1,5,16.7627)"><tspan class="quote">“</tspan><tspan>)</tspan><tspan class="quote">”</tspan></text></g></g><g class="literal" transform="matrix(1,0,0,1,20.6797,57.0508)"><g class="label"><rect width="22" height="23.5" rx="3" ry="3"></rect><text x="0" y="0" transform="matrix(1,0,0,1,5,16.75)"><tspan class="quote">“</tspan><tspan>-</tspan><tspan class="quote">”</tspan></text></g></g><g class="charset-range" transform="matrix(1,0,0,1,0,85.5508)"><text x="0" y="0" transform="matrix(1,0,0,1,29.6797,16)">-</text><g class="literal" transform="matrix(1,0,0,1,0,0)"><g class="label"><rect width="24.6796875" height="23.5" rx="3" ry="3"></rect><text x="0" y="0" transform="matrix(1,0,0,1,5,16.75)"><tspan class="quote">“</tspan><tspan>0</tspan><tspan class="quote">”</tspan></text></g></g><g class="literal" transform="matrix(1,0,0,1,38.6797,0)"><g class="label"><rect width="24.6796875" height="23.5" rx="3" ry="3"></rect><text x="0" y="0" transform="matrix(1,0,0,1,5,16.75)"><tspan class="quote">“</tspan><tspan>9</tspan><tspan class="quote">”</tspan></text></g></g></g></g></g></g></g></g><path d="M25,91.6298953125H0M694.062490258789,91.6298953125H729.0625"></path><circle cx="0" cy="91.6298953125" r="5"></circle><circle cx="729.0625" cy="91.6298953125" r="5"></circle></g></svg>
        